<?xml version="1.0" encoding="utf-8"?>
<!-- Generator: Adobe Illustrator 25.3.0, SVG Export Plug-In . SVG Version: 6.00 Build 0)  -->
<svg version="1.1" id="Layer_1" focusable="false" xmlns="http://www.w3.org/2000/svg" xmlns:xlink="http://www.w3.org/1999/xlink"
	 x="0px" y="0px" viewBox="0 0 20 20" style="enable-background:new 0 0 20 20;" xml:space="preserve">
<path d="M14.6,5.6V4.1c0-3-2.1-5.4-4.8-5.4S5,1.1,5,4.1v1.5h-5.2v9.2c0,3.2,2.4,5.8,5.3,5.8h9.5c2.9,0,5.3-2.6,5.3-5.8V5.6H14.6z
	 M6,4.1c0-2.3,1.7-4.2,3.8-4.2s3.8,1.9,3.8,4.2v1.5H6V4.1z M18.8,14.8c0,2.6-1.9,4.7-4.3,4.7H5c-2.3,0-4.3-2.1-4.3-4.7v-8H5v2.8h1
	V6.8h7.6v2.8h1V6.8h4.2V14.8z" fill="#000"/>
</svg>
