<?xml version="1.0" encoding="utf-8"?>
<!-- Generator: Adobe Illustrator 25.3.0, SVG Export Plug-In . SVG Version: 6.00 Build 0)  -->
<svg version="1.1" id="Layer_1" xmlns="http://www.w3.org/2000/svg" xmlns:xlink="http://www.w3.org/1999/xlink" x="0px" y="0px"
	 viewBox="0 0 1200 628" style="enable-background:new 0 0 1200 628;" xml:space="preserve">
<g>
	<path d="M-749.7,78.9C-776.2-33.2-910-71.1-983.2,22.4c-1.4,1.9-2.1,3.6-4.4,0.4c-73.1-96-212-53.8-234.8,60.6
		c-1.1,2.6-4.3,33.1-1.6,45.2c16.7,127.3,127.4,216.8,232.1,277.4c4.4,2.5,8.2,2.5,12.6,0C-865.3,340.3-726.3,225.5-749.7,78.9z
		 M-763.5,130.7c-15.6,115.8-124.3,202.8-218.9,258.9c-2.1,1.2-3.7,1.4-5.9,0.1c-84.1-50.1-167.3-115.2-206.1-207.9
		c-32.1-74.7-9.6-161.8,67.1-190.2c50.5-18.6,106.3,5.2,133.5,50.4c5,8.4,11.6,8.2,16.8-0.1c22.7-36,55.4-55.1,97.9-56.3
		c24.5-0.7,46.7,7.3,65.8,22.4C-773.6,39.3-757.4,80.5-763.5,130.7z" fill="#000"/>
</g>
</svg>
