<?xml version="1.0" encoding="utf-8"?>
<!-- Generator: Adobe Illustrator 25.3.0, SVG Export Plug-In . SVG Version: 6.00 Build 0)  -->
<svg version="1.1" id="Layer_1" xmlns="http://www.w3.org/2000/svg" xmlns:xlink="http://www.w3.org/1999/xlink" x="0px" y="0px"
	 viewBox="0 0 1200 628" style="enable-background:new 0 0 1200 628;"  xml:space="preserve">
<g>
	<path d="M2224.3,12.2c-39.8-39.8-79.5-79.5-119.4-119.3c-2.1-2.1-2.5-3.3-0.4-5.7c50.4-56.1,52.3-146.8,4.5-205
		c-86.2-108.4-257.9-66.3-285.6,69c-26.9,150.2,145.9,252.7,263,154c3.2-2.8,4.6-2.1,7.2,0.5c41.2,40.6,81.1,82.7,123.1,122.3
		c2.4,1.5,5.8,1.4,8.1-0.3C2230.7,23.6,2230.2,17.3,2224.3,12.2z M1982-73.1c-79.9-0.5-144.4-64.2-144.4-144.6
		c7.1-192.4,282.2-191.1,289.3,0C2126.9-138.3,2061.4-72.7,1982-73.1z" fill="#000"/>
</g>
</svg>
